{"title":"PBS.Austin City Limits.The Black Keys (2010).720p.HDTV.x264-KarM","uid":7574257,"size":974999084,"categoryP":"video","categoryS":"music_videos","magnet":"?xt=urn:btih:53f8d97cd1e91b60b9bea8f1c88d4e682d264b44&amp;dn=PBS.Austin+City+Limits.The+Black+Keys+%282010%29.720p.HDTV.x264-KarM&amp;tr=udp%3A%2F%2Ftracker.openbittorrent.com%3A80&amp;tr=udp%3A%2F%2Fopen.demonii.com%3A1337&amp;tr=udp%3A%2F%2Ftracker.coppersurfer.tk%3A6969&amp;tr=udp%3A%2F%2Fexodus.desync.com%3A6969","seeders":1,"leechers":0,"uploader":"karmax264","files":5,"time":1346073162,"description":"--------------\n[u]PBS.Austin City Limits.The Black Keys (2010).720p.HDTV.x264-KarMa[/u]\nHigh Quality - Ultra Small Size\n-\n[code]General\nComplete name : PBS.Austin City Limits.The Black Keys (2010).720p.HDTV.x264-KarMa.mp4\nFormat : MPEG-4 (x264)\nFile size : 849 MiB\nDuration : 29mn 20s\nOverall bit rate mode : Variable\nOverall bit rate : 4 044 Kbps\n-\nVideo\nFormat/Info : Advanced Video Codec\nFormat profile : &lt;a class=&quot;__cf_email__&quot; href=&quot;/cdn-cgi/l/email-protection&quot; data-cfemail=&quot;aae2c3cdc2eae69e849a&quot;&gt;[email&amp;#160;protected]&lt;/a&gt;&lt;script data-cfhash='f9e31' type=&quot;text/javascript&quot;&gt;\n/* &lt;![CDATA[ */!function(){try{var t=&quot;currentScript&quot;in document?document.currentScript:function(){for(var t=document.getElementsByTagName(&quot;script&quot;),e=t.length;e--;)if(t[e].getAttribute(&quot;data-cfhash&quot;))return t[e]}();if(t&amp;&amp;t.previousSibling){var e,r,n,i,c=t.previousSibling,a=c.getAttribute(&quot;data-cfemail&quot;);if(a){for(e=&quot;&quot;,r=parseInt(a.substr(0,2),16),n=2;a.length-n;n+=2)i=parseInt(a.substr(n,2),16)^r,e+=String.fromCharCode(i);e=document.createTextNode(e),c.parentNode.replaceChild(e,c)}t.parentNode.removeChild(t);}}catch(u){}}()/* ]]&gt; */&lt;/script&gt;\nFormat settings, CABAC : Yes\nFormat settings, ReFrames : 7 frames\nDuration : 29mn 20s\nBit rate : 3 681 Kbps\nMaximum bit rate : 11.4 Mbps\nWidth : 1 280 pixels\nHeight : 720 pixels\nFrame rate mode : Constant\nFrame rate : 29.970 fps\nScan type : Progressive\nBits/(Pixel*Frame) : 0.133\nStream size : 773 MiB (91%)\nWriting library : x264 core 120\nEncoding settings : cabac=1 / ref=7 / analyse=0x3:0x113 / me=umh / subme=10 / psy=1 / psy_rd=1.00:0.15 / mixed_ref=1 / me_range=64 / chroma_me=1 / trellis=2 / 8x8dct=1 / crf=22.0\n-\nAudio\nFormat : AAC\nFormat profile : LC\nBit rate mode : Variable\nBit rate : 192 Kbps\nMaximum bit rate : 213 Kbps\nChannel(s) : 2 channels\nSampling rate : 48.0 KHz\nStream size : 39.9 MiB (5%)[/code]\n","torrent":{"xt":"urn:btih:53f8d97cd1e91b60b9bea8f1c88d4e682d264b44","amp;dn":"PBS.Austin+City+Limits.The+Black+Keys+%282010%29.720p.HDTV.x264-KarM","amp;tr":["udp%3A%2F%2Ftracker.openbittorrent.com%3A80","udp%3A%2F%2Fopen.demonii.com%3A1337","udp%3A%2F%2Ftracker.coppersurfer.tk%3A6969","udp%3A%2F%2Fexodus.desync.com%3A6969"],"infoHash":"53f8d97cd1e91b60b9bea8f1c88d4e682d264b44","infoHashBuffer":{"type":"Buffer","data":[83,248,217,124,209,233,27,96,185,190,168,241,200,141,78,104,45,38,75,68]},"announce":[],"urlList":[]}}